<svg version="1.1" id="Layer_1" xmlns="http://www.w3.org/2000/svg" xmlns:xlink="http://www.w3.org/1999/xlink" x="0px" y="0px"
	 width="100%" viewBox="0 0 512 512" enable-background="new 0 0 512 512" xml:space="preserve">
<path opacity="1.000000" stroke="none" 
	d="
M295.000000,513.000000 
	C198.023544,513.000000 101.547058,512.980286 5.070719,513.084778 
	C1.802331,513.088318 0.894463,512.641479 0.896976,509.072510 
	C1.015240,341.113556 1.016762,173.154526 0.892150,5.195616 
	C0.889366,1.443086 1.842314,0.913066 5.302440,0.915069 
	C173.094788,1.012203 340.887177,1.011449 508.679535,0.919200 
	C512.090881,0.917324 513.114380,1.375147 513.111450,5.177567 
	C512.982422,173.136490 512.985229,341.095520 513.101013,509.054474 
	C513.103455,512.586548 512.254639,513.093628 508.947266,513.088196 
	C437.798309,512.972107 366.649139,513.000000 295.000000,513.000000 
z"/>
<path fill="#EC5900" opacity="1.000000" stroke="none" 
	d="
M452.904358,238.571411 
	C452.884399,241.989761 451.490173,244.621185 450.353821,247.999557 
	C459.535187,247.999557 468.408051,248.007950 477.280914,247.994492 
	C479.956970,247.990448 482.841003,248.192780 484.447632,250.340195 
	C485.339935,251.532822 486.608795,253.399002 485.201508,255.691132 
	C483.674164,258.178864 481.718842,258.990051 479.112396,258.994110 
	C469.949890,259.008362 460.776642,259.263641 451.629486,258.889069 
	C447.105621,258.703827 444.109985,259.579620 442.825043,264.305176 
	C442.420746,265.791962 441.070648,267.021637 439.992920,268.687134 
	C436.364990,271.886658 432.829346,271.876160 428.908539,268.915619 
	C427.153412,261.367218 427.153412,261.372131 419.373718,261.363098 
	C394.722473,261.334442 370.070648,261.487701 345.420227,261.283020 
	C336.633667,261.210052 330.143402,252.542999 332.372192,243.478134 
	C336.011627,240.863083 339.578094,242.057632 343.565155,242.478943 
	C348.328247,245.659332 353.251495,245.684814 358.285065,245.665634 
	C380.085907,245.582489 401.889496,245.450623 423.687195,245.727066 
	C431.323792,245.823944 438.378448,245.812210 442.175293,237.078110 
	C446.099945,236.207855 449.731384,234.437729 452.904358,238.571411 
z"/>
<path fill="#EA5300" opacity="1.000000" stroke="none" 
	d="
M84.566742,254.251740 
	C83.714256,253.133865 82.983238,252.302139 82.854675,251.385864 
	C81.823517,244.036911 76.962723,243.665665 70.861000,243.877090 
	C58.745049,244.296951 46.604149,244.035660 34.473866,243.983887 
	C29.647167,243.963272 27.546827,240.710251 28.916046,236.342133 
	C29.792442,233.546234 31.734106,234.019104 33.628559,234.015717 
	C47.749214,233.990555 61.869930,234.002075 76.496513,234.002075 
	C75.650948,230.452972 74.857933,227.124435 74.115982,223.399994 
	C77.106293,219.603287 80.710785,220.964310 84.665710,221.734100 
	C86.901031,222.817398 87.567528,224.582062 88.055840,226.318359 
	C89.204224,230.401779 92.017380,231.640854 95.955978,231.636810 
	C108.586510,231.623856 121.217247,231.623688 133.847900,231.634872 
	C141.160400,231.641342 148.477646,231.478577 155.783752,231.689255 
	C160.625504,231.828888 164.692688,230.955963 167.098938,226.256409 
	C167.483887,225.504593 168.262802,225.094147 169.496536,224.673920 
	C173.401260,224.046783 176.848770,223.130295 180.692657,224.778137 
	C182.219223,226.259003 182.506607,227.730072 181.937180,229.212036 
	C180.147659,233.869324 178.288177,238.506393 175.571198,242.726791 
	C173.748642,245.557877 170.938110,246.231903 167.785675,246.281647 
	C157.474609,246.444290 147.163528,246.331451 136.852570,246.355560 
	C125.709724,246.381622 114.566750,246.346786 103.423874,246.367477 
	C96.622093,246.380112 96.622131,246.400024 94.997292,253.063980 
	C91.725334,255.982895 88.367256,255.438354 84.566742,254.251740 
z"/>
<path fill="#DE1600" opacity="1.000000" stroke="none" 
	d="
M280.004578,95.408890 
	C292.682648,87.399506 306.517578,83.113129 321.177734,80.894089 
	C330.109100,79.542183 339.027344,79.788467 347.902252,80.129211 
	C365.274689,80.796219 381.585571,85.740181 396.773010,94.266068 
	C399.750946,95.937805 402.722504,97.620850 405.872803,99.597099 
	C406.115723,102.989319 403.734650,102.894257 401.700226,103.202454 
	C398.515472,103.684906 395.185242,102.698723 391.681824,104.296005 
	C389.146118,104.854874 387.400970,103.772247 385.605225,102.961693 
	C357.891754,90.452408 329.697174,88.716011 300.959290,99.166191 
	C299.542572,99.681366 298.158203,100.210609 296.206787,99.710846 
	C293.376984,98.329659 290.827850,98.190323 288.132172,98.226845 
	C285.305115,98.265160 282.045532,99.054359 280.004578,95.408890 
z"/>
<path fill="#DE1600" opacity="1.000000" stroke="none" 
	d="
M130.944946,96.409920 
	C145.546448,86.956718 161.407928,81.915680 178.530441,79.866211 
	C202.974213,76.940430 225.758713,81.867683 247.859421,92.592056 
	C249.117554,96.249077 246.802017,96.639946 244.435074,97.161926 
	C241.070221,97.903969 237.578369,96.061821 233.907318,97.970879 
	C231.616669,99.362206 229.684998,98.902527 227.760529,98.248260 
	C202.659988,89.714905 177.775711,90.535095 153.075867,99.932144 
	C151.689316,100.459656 150.257706,100.970474 148.270767,100.778419 
	C144.969025,99.339798 141.995590,100.153969 139.050507,100.187386 
	C135.940231,100.222672 132.613846,100.552422 130.944946,96.409920 
z"/>
<path fill="#FA9D00" opacity="1.000000" stroke="none" 
	d="
M310.990906,407.603882 
	C301.484314,415.131073 291.928131,422.359894 282.151154,429.276642 
	C272.563965,436.059174 259.705017,435.885742 249.684387,429.299713 
	C239.497650,422.604492 229.570419,415.560455 220.085144,407.414520 
	C219.556076,403.962891 221.690765,403.340790 224.078018,402.930267 
	C226.179062,402.568970 228.266464,403.478363 230.756851,402.856567 
	C233.698151,402.088379 235.600601,403.327942 237.530060,404.757935 
	C243.534683,409.208221 249.570724,413.615631 255.676254,417.929260 
	C262.493408,422.745728 269.145111,422.752991 275.962799,417.876251 
	C280.960480,414.301453 285.954224,410.718872 290.970642,407.169128 
	C292.621216,406.001068 294.209015,404.804749 296.804626,405.158508 
	C299.339752,405.758179 301.368347,404.793121 303.448212,404.819977 
	C306.127045,404.854492 309.058350,404.260803 310.990906,407.603882 
z"/>
<path fill="#E01E00" opacity="1.000000" stroke="none" 
	d="
M232.876801,97.493469 
	C234.021088,94.473282 236.383408,95.255020 238.394531,94.977867 
	C241.497467,94.550247 244.919067,96.220612 247.866592,93.247528 
	C253.510391,95.314560 258.666962,98.353401 263.324707,102.032707 
	C265.556488,103.795685 266.723419,103.295815 268.638458,101.962746 
	C272.075348,99.570328 275.716187,97.470932 279.589905,95.111816 
	C283.222748,96.587364 286.788269,95.785645 290.243225,96.043915 
	C292.098267,96.182587 293.848022,96.641365 295.737183,97.875633 
	C296.491699,100.438263 294.901001,101.345078 293.237549,102.242599 
	C285.620300,106.352547 278.222839,110.787209 271.343903,116.093033 
	C267.840302,118.795395 264.044647,118.861496 260.301270,116.072334 
	C252.552231,110.298592 244.523621,104.962181 235.615845,101.088478 
	C234.158981,100.454933 233.091293,99.505608 232.876801,97.493469 
z"/>
<path fill="#F58700" opacity="1.000000" stroke="none" 
	d="
M187.304565,380.171143 
	C181.930557,378.267670 179.202332,373.682831 175.345108,370.546204 
	C167.848618,364.450256 161.170319,357.348175 154.010071,350.356628 
	C156.586182,346.045654 161.019135,348.459106 164.856140,347.095459 
	C167.471619,346.378815 169.020874,347.600342 170.599838,348.905212 
	C179.436523,356.208130 187.331314,364.567719 196.295502,371.735291 
	C198.319366,373.353546 200.457474,375.272339 199.380707,378.841675 
	C195.651657,382.588348 191.649307,381.054077 187.304565,380.171143 
z"/>
<path fill="#F37A00" opacity="1.000000" stroke="none" 
	d="
M166.211578,347.544189 
	C162.779358,351.183044 158.588028,349.596222 154.324432,350.039429 
	C144.153015,340.396179 134.861588,330.356934 126.089600,319.408936 
	C127.095299,313.232361 131.455978,315.267548 135.454224,315.410583 
	C138.039780,315.187592 139.734497,316.082672 141.140488,317.660492 
	C148.644531,326.081451 156.136383,334.513306 164.145294,342.466827 
	C165.449524,343.762024 166.726517,345.113495 166.211578,347.544189 
z"/>
<path fill="#E01E00" opacity="1.000000" stroke="none" 
	d="
M130.537445,95.973969 
	C135.936539,99.550720 142.007553,96.884293 147.693604,98.886299 
	C148.464188,101.988914 146.093857,102.831024 144.318970,103.753143 
	C134.830505,108.682732 126.178246,114.744263 118.483269,122.171440 
	C117.155762,123.452751 115.781136,124.669769 113.327103,124.472168 
	C108.752235,123.543053 104.175468,125.678688 100.077545,122.353760 
	C108.841331,111.983452 118.429985,102.727493 130.537445,95.973969 
z"/>
<path fill="#F89200" opacity="1.000000" stroke="none" 
	d="
M187.029022,380.352966 
	C190.496445,378.087189 194.676651,379.826904 198.729004,378.112793 
	C201.147781,376.221619 202.793671,377.426300 204.343948,378.727905 
	C212.162918,385.292938 220.215820,391.561646 228.260681,397.844147 
	C230.005905,399.207001 232.127197,400.525269 232.168762,403.535156 
	C228.570724,406.388367 223.849670,403.527161 220.226364,406.838623 
	C213.811325,404.367584 209.378098,399.282898 204.096161,395.378937 
	C198.102478,390.948944 192.782532,385.607361 187.029022,380.352966 
z"/>
<path fill="#E01E00" opacity="1.000000" stroke="none" 
	d="
M390.991455,103.209656 
	C395.397491,99.734070 400.714386,101.977821 405.706512,100.126053 
	C416.695129,106.810204 425.901581,115.297447 433.897217,125.568665 
	C435.084564,128.493149 433.496460,129.517258 431.374481,130.007828 
	C429.282867,130.491379 427.121063,130.501053 424.565369,130.483231 
	C422.116699,130.655807 420.753296,129.469116 419.471039,128.137604 
	C411.770386,120.141220 403.283112,113.120346 393.745178,107.405975 
	C392.264221,106.518692 391.088928,105.447243 390.991455,103.209656 
z"/>
<path fill="#E22900" opacity="1.000000" stroke="none" 
	d="
M99.565979,122.110809 
	C104.368256,122.220016 108.933693,121.424934 113.767830,122.955124 
	C115.233017,125.334221 113.785904,126.800842 112.424866,128.269745 
	C106.199562,134.988373 101.181671,142.548035 96.829628,150.575546 
	C95.646973,152.756989 94.623642,155.118591 91.267914,155.506439 
	C87.608223,156.117722 84.328575,157.114624 81.107422,154.360626 
	C83.962006,143.519058 90.378227,134.936035 96.378677,126.124687 
	C97.282494,124.797478 98.295868,123.544884 99.565979,122.110809 
z"/>
<path fill="#F17000" opacity="1.000000" stroke="none" 
	d="
M137.284210,316.622620 
	C133.528107,317.105469 129.828781,316.531555 126.248878,318.861023 
	C117.366913,309.783051 110.213142,299.375702 103.018982,289.000244 
	C102.292961,287.953186 101.664970,286.838135 100.939743,285.396118 
	C103.284660,281.492218 107.040794,282.976868 110.671585,282.505432 
	C113.850052,282.282532 115.210861,284.271973 116.551697,286.138550 
	C122.512955,294.437256 128.408676,302.778534 135.066193,310.555450 
	C136.403183,312.117249 137.923080,313.852203 137.284210,316.622620 
z"/>
<path fill="#F89200" opacity="1.000000" stroke="none" 
	d="
M311.445129,407.901611 
	C306.457825,406.469147 301.610138,407.157837 296.358093,406.962341 
	C295.000610,404.611603 296.336151,403.235992 297.995758,401.937042 
	C306.472534,395.302277 314.956482,388.676178 323.309753,381.885834 
	C325.025787,380.490845 326.749939,379.246857 329.509491,379.926697 
	C331.651337,381.152161 333.637054,380.505188 335.512970,380.756042 
	C337.423126,381.011536 339.430542,380.997253 340.133545,383.703644 
	C333.808197,391.009125 326.003113,396.068329 318.938293,401.999969 
	C316.587280,403.973877 314.150635,405.845825 311.445129,407.901611 
z"/>
<path fill="#F37A00" opacity="1.000000" stroke="none" 
	d="
M396.004364,329.623840 
	C388.415558,340.319458 378.495880,348.506165 369.421234,357.917358 
	C365.215515,359.013550 361.311279,360.302246 357.162231,357.616089 
	C355.612305,355.285706 356.152832,353.417389 357.632843,351.856995 
	C365.297729,343.775970 373.212463,335.941498 381.236633,328.218170 
	C382.221008,327.270752 383.447784,326.758606 385.245361,326.751770 
	C389.064636,327.586334 393.224121,325.215118 396.004364,329.623840 
z"/>
<path fill="#F58700" opacity="1.000000" stroke="none" 
	d="
M356.559753,355.774231 
	C360.495422,357.907623 364.679596,356.165802 368.733704,357.888428 
	C360.255585,367.321259 350.700378,375.828949 340.368988,383.969727 
	C336.884918,381.493927 332.345764,384.699677 329.131348,381.224731 
	C327.835480,378.562500 329.207977,376.935608 330.726715,375.665894 
	C337.609039,369.912109 344.160583,363.785187 350.964996,357.947754 
	C352.415649,356.703278 353.923767,355.121826 356.559753,355.774231 
z"/>
<path fill="#EF6600" opacity="1.000000" stroke="none" 
	d="
M428.797546,268.009521 
	C432.427094,268.566711 435.653168,269.289856 439.406830,269.004272 
	C436.523621,277.447601 431.127350,284.677612 426.225037,292.178558 
	C424.371918,295.013947 422.813446,298.127899 419.988892,300.690979 
	C416.393250,303.257782 412.824402,304.056152 408.681091,301.676575 
	C406.190399,299.272522 407.176453,297.028870 408.525269,295.155731 
	C414.201447,287.273163 419.797394,279.348663 424.651398,270.917694 
	C425.453003,269.525421 426.530243,268.161011 428.797546,268.009521 
z"/>
<path fill="#F17000" opacity="1.000000" stroke="none" 
	d="
M407.511047,299.822266 
	C411.526672,300.656403 415.200714,301.273590 419.397888,301.001404 
	C412.934448,311.230469 404.897003,320.546600 396.436249,329.901733 
	C392.627167,329.467010 389.123840,328.898956 385.292664,328.100220 
	C383.889893,326.224579 384.186432,324.564484 385.381927,323.264069 
	C392.023041,316.040131 398.136658,308.368500 404.521851,300.928192 
	C405.192627,300.146576 406.093201,299.709991 407.511047,299.822266 
z"/>
<path fill="#E43500" opacity="1.000000" stroke="none" 
	d="
M80.575363,154.158386 
	C84.319138,153.978867 87.752853,153.999039 91.654587,154.026886 
	C93.885101,155.469955 93.556541,157.385406 92.855064,159.021744 
	C89.127953,167.715988 87.358307,176.949982 85.163528,186.069321 
	C84.968811,186.878387 84.671188,187.638290 83.834419,188.609558 
	C79.895897,190.630096 76.268837,192.989975 72.470451,188.351685 
	C73.495689,176.457581 75.950844,165.184021 80.575363,154.158386 
z"/>
<path fill="#ED6000" opacity="1.000000" stroke="none" 
	d="
M112.313782,283.634003 
	C108.712456,284.528198 105.301506,285.296326 101.336464,285.030792 
	C94.385872,275.461487 88.669876,265.454681 84.222748,254.363251 
	C87.111473,252.959747 90.172081,252.932358 93.680069,252.969147 
	C95.853355,252.361160 97.129852,253.224915 97.828499,254.582993 
	C102.342010,263.356628 107.583443,271.722015 112.211273,280.428894 
	C112.681274,281.313141 112.843842,282.297485 112.313782,283.634003 
z"/>
<path fill="#E84500" opacity="1.000000" stroke="none" 
	d="
M72.101547,188.466858 
	C75.460381,188.725143 78.755760,189.277649 82.448692,188.035187 
	C84.377289,188.817520 84.735443,190.190887 84.587906,191.781128 
	C83.800468,200.268402 84.901443,208.638199 86.078857,217.011566 
	C86.330353,218.800095 86.394577,220.657318 85.144760,222.679550 
	C81.574585,223.006775 78.314651,223.004471 74.610886,223.003143 
	C71.271904,211.783218 72.050110,200.332672 72.101547,188.466858 
z"/>
<path fill="#E94C00" opacity="1.000000" stroke="none" 
	d="
M453.443542,238.817017 
	C450.153412,238.114777 447.110474,237.848572 443.593567,238.003967 
	C441.640564,237.063416 441.480133,235.576019 441.859772,234.085175 
	C443.978333,225.765823 445.331573,217.284927 447.253937,208.925690 
	C447.401855,208.282425 447.892487,207.781708 448.771088,207.060699 
	C452.393799,205.680435 455.591339,205.081985 458.950317,207.608917 
	C459.007782,218.514801 456.482300,228.581131 453.443542,238.817017 
z"/>
<path fill="#E22900" opacity="1.000000" stroke="none" 
	d="
M422.889954,129.283249 
	C426.548859,127.708023 430.585449,129.115433 433.880554,126.215897 
	C440.447327,133.627502 445.290588,142.345352 449.770142,151.665848 
	C447.677124,156.161560 443.717285,155.166382 439.795044,155.382233 
	C437.427368,154.964600 436.295410,153.590439 435.439484,151.941956 
	C432.105377,145.520737 428.277924,139.412659 423.899963,133.651672 
	C422.983276,132.445343 422.212616,131.208084 422.889954,129.283249 
z"/>
<path fill="#E74000" opacity="1.000000" stroke="none" 
	d="
M459.558655,207.776978 
	C456.166962,208.024231 453.115356,208.013031 449.614868,208.002777 
	C447.533966,207.387314 446.970215,206.021347 446.940826,204.469910 
	C446.790771,196.547928 446.430725,188.639160 445.719025,180.746414 
	C445.659912,180.090988 445.983887,179.462677 446.618988,178.518127 
	C450.362427,176.344727 453.761230,176.149002 457.476990,178.665649 
	C459.555695,188.434738 460.508362,197.920044 459.558655,207.776978 
z"/>
<path fill="#E43500" opacity="1.000000" stroke="none" 
	d="
M457.885986,178.606537 
	C454.573761,179.004425 451.314911,179.003601 447.611877,179.003571 
	C446.839966,178.931595 446.373566,178.894379 446.264435,178.660919 
	C442.665100,170.961044 439.145996,163.230804 438.870850,154.281799 
	C442.466766,153.394455 445.766418,152.789154 449.442383,152.099152 
	C453.334320,160.494827 456.007629,169.236343 457.885986,178.606537 
z"/>
<path fill="#000000" opacity="1.000000" stroke="none" 
	d="
M439.004303,153.679016 
	C442.323364,161.888092 445.819092,169.666107 447.098022,178.595825 
	C449.824036,188.252914 448.943420,197.735001 449.096252,207.578598 
	C448.264191,217.984238 446.266296,227.735306 443.107666,237.618179 
	C441.437714,247.403641 435.321136,248.417282 426.834015,248.217987 
	C401.072723,247.613052 375.288055,247.970963 349.512787,248.041367 
	C346.870361,248.048584 344.668915,247.936111 344.027191,244.362091 
	C341.414429,242.729202 339.994537,240.725739 338.862701,238.222473 
	C336.165100,232.256500 333.639496,226.209534 330.639526,219.989197 
	C327.147278,211.530685 323.466919,203.544083 319.995758,195.465942 
	C319.270508,193.778152 318.346222,192.036880 316.173462,191.956619 
	C313.865875,191.871399 313.161621,193.788895 312.451935,195.452545 
	C309.718048,201.861130 307.826691,208.608932 304.615845,215.206757 
	C302.131378,223.164764 299.196625,230.571304 295.894562,238.235626 
	C292.613647,248.454590 288.779510,258.062805 284.644043,267.954712 
	C281.625549,277.441864 277.967102,286.287140 274.233978,295.509430 
	C271.265625,304.098450 268.299774,312.282196 264.588043,320.610748 
	C263.556122,323.014893 262.209137,324.203369 259.499207,323.134216 
	C254.968658,316.567261 253.378113,309.273865 251.381897,301.724182 
	C248.327484,293.376434 245.544037,285.347992 243.555573,276.665405 
	C240.050781,268.428497 238.137100,260.080200 235.442505,251.584320 
	C231.862595,240.915848 228.552551,230.562500 225.417633,219.753738 
	C222.365707,210.418076 219.201599,201.517456 216.652634,192.038147 
	C214.105637,185.527771 212.225876,179.189423 210.511017,172.796875 
	C209.910233,170.557327 209.145096,168.364029 208.330276,166.194626 
	C207.688095,164.484848 207.030411,162.604156 204.821960,162.462418 
	C202.336929,162.302917 201.426285,164.324387 200.661484,166.124786 
	C198.328812,171.615936 195.646240,176.934372 193.026062,182.287094 
	C191.062851,186.297684 188.797348,190.160324 187.055237,194.667603 
	C183.176437,203.406540 178.631317,211.440887 175.133255,219.973999 
	C174.178040,222.304092 172.858124,224.354507 170.179260,225.720520 
	C167.595764,233.773148 161.918854,234.333740 154.789993,234.167618 
	C134.501907,233.694839 114.192780,233.815857 93.898544,234.130325 
	C88.725212,234.210480 86.222374,232.703537 85.947296,227.545456 
	C85.880112,226.285629 85.308205,225.052734 84.901428,223.408264 
	C82.747795,211.703918 80.530098,200.405945 82.896652,188.427887 
	C84.171860,176.456482 87.477783,165.452820 92.058426,154.408752 
	C98.222366,143.086288 104.459526,132.236115 114.009293,123.332886 
	C123.215126,113.920296 133.496231,106.513542 144.901871,100.658470 
	C145.752686,100.221703 146.730011,100.031387 147.842239,99.423721 
	C164.354507,92.708450 181.185791,89.086334 198.808014,90.017464 
	C210.281815,90.623726 221.315567,93.448586 232.572205,97.067970 
	C243.617950,102.134583 253.878311,107.747398 263.013763,115.334045 
	C265.468536,117.372650 268.333557,115.700867 270.618835,113.863319 
	C278.289795,107.695236 286.635712,102.646461 295.849243,98.422638 
	C303.708557,96.074379 311.131470,93.259361 319.016602,91.802277 
	C334.773315,88.890633 350.288971,89.411163 365.742096,93.413155 
	C374.267761,95.621094 382.554932,98.470818 390.653442,102.783051 
	C402.787750,109.879639 413.575500,118.168030 422.976318,128.670807 
	C429.373871,136.450134 434.470490,144.670303 439.004303,153.679016 
z"/>
<path fill="#000000" opacity="1.000000" stroke="none" 
	d="
M112.444649,284.137329 
	C105.615562,274.156433 99.909714,263.874084 94.440765,253.118347 
	C94.344490,249.770859 91.237297,247.455322 91.819824,244.001434 
	C116.758743,244.001434 141.706345,243.895615 166.651398,244.099625 
	C171.109802,244.136063 173.624985,242.824478 175.213486,238.599808 
	C176.743607,234.530411 179.034225,230.746979 181.016541,226.475632 
	C180.275314,224.367691 180.105835,222.657135 181.017548,220.864639 
	C185.445129,212.159805 189.431656,203.237198 194.153030,194.245453 
	C195.698364,189.800171 197.664047,185.961670 199.869476,182.278549 
	C202.169495,178.437439 205.248260,178.611526 207.302765,182.565643 
	C208.603439,185.068939 209.288864,187.818161 210.184387,190.892609 
	C212.821320,200.229324 216.400879,208.863571 218.597931,218.329681 
	C222.587799,228.900833 225.527161,239.407532 228.718018,250.232239 
	C231.801407,258.854706 234.359665,267.246857 236.861237,276.058594 
	C239.901443,284.117371 241.975327,292.087769 244.576721,300.284363 
	C246.814087,307.675995 249.619080,314.494507 251.306091,322.042633 
	C253.360825,327.865784 255.071030,333.420624 257.022247,338.893311 
	C257.634552,340.610657 258.177704,342.620117 260.473114,342.596130 
	C262.709351,342.572784 263.307495,340.628021 263.991547,338.911682 
	C266.383972,332.909210 268.403107,326.756897 271.353943,320.590881 
	C273.777985,312.382507 276.747406,304.763519 280.294525,296.961487 
	C283.439026,286.985962 287.099884,277.609955 291.314423,268.047913 
	C294.616028,258.101349 298.042938,248.601532 302.351440,239.041534 
	C305.015015,231.019913 307.494202,223.326920 311.320007,215.743240 
	C312.422638,212.377197 312.312988,208.167618 316.396179,207.816437 
	C320.146179,207.493896 320.212891,211.669388 321.662231,214.044189 
	C322.339264,215.153534 322.836426,216.375336 323.422974,217.961029 
	C326.356232,224.968201 329.687134,231.383484 332.232361,238.146133 
	C332.861877,239.818726 333.948425,241.399658 332.989594,243.675537 
	C333.421478,248.332123 335.880676,251.904312 337.514526,255.760742 
	C338.672516,258.493866 341.415497,259.100586 344.567688,259.085419 
	C374.115326,258.942963 403.663910,259.000885 433.305847,259.000885 
	C433.195892,262.512848 430.483215,264.556396 429.222961,267.668030 
	C422.796753,278.863312 416.004333,289.440613 408.017609,299.628784 
	C401.979065,307.688202 395.916412,315.290833 389.161011,322.311371 
	C387.692230,323.837799 386.071838,325.227325 385.099213,327.559052 
	C375.695740,337.024475 366.426727,346.179413 357.021271,355.642670 
	C347.664490,364.054718 338.444183,372.158478 329.093964,380.568451 
	C324.168091,382.871857 321.004669,387.011810 316.995178,390.043152 
	C309.967560,395.356445 303.101532,400.883514 296.028198,406.636902 
	C290.183380,410.879303 284.347473,414.630615 278.800293,418.768951 
	C267.352081,427.309631 260.694580,424.714355 251.140152,417.651672 
	C245.013077,413.122559 238.833145,408.664917 232.359482,404.029724 
	C221.297028,395.259644 210.552002,386.635071 199.459137,377.982819 
	C190.585922,369.415558 181.303314,361.713745 172.306641,353.694977 
	C170.341019,351.943024 168.533615,350.013611 166.345901,348.023804 
	C159.766876,340.736511 152.512772,334.527100 146.502991,327.113037 
	C143.740936,323.705597 140.184708,320.956116 137.422913,317.101990 
	C128.632904,306.343567 119.872978,295.931519 112.444649,284.137329 
z"/>
<path fill="#EA5300" opacity="1.000000" stroke="none" 
	d="
M333.344604,244.029724 
	C328.261993,236.400970 325.447906,227.952927 321.935760,219.416229 
	C324.781036,215.757446 327.999695,216.428329 331.713776,218.615234 
	C336.601959,225.160294 338.447144,232.642746 341.966858,239.315186 
	C342.642273,240.595627 343.151398,241.963821 343.785126,243.648193 
	C340.490936,244.010620 337.148804,244.016403 333.344604,244.029724 
z"/>
<path fill="#E84500" opacity="1.000000" stroke="none" 
	d="
M195.604706,194.576843 
	C191.117157,205.243347 186.400467,215.486557 181.363068,225.921570 
	C177.635147,226.065933 174.227936,226.018494 170.353821,225.961792 
	C174.435394,215.308853 179.282333,204.807816 185.005493,194.326248 
	C188.603180,191.705597 192.028351,190.281403 195.604706,194.576843 
z"/>
<path fill="#E63A00" opacity="1.000000" stroke="none" 
	d="
M195.996384,194.678558 
	C192.646713,193.859131 189.334091,193.950943 185.595413,194.002411 
	C189.242172,182.956635 195.545074,172.940704 199.959702,162.051254 
	C200.834595,159.893204 202.915970,159.025772 204.680222,159.205902 
	C207.081223,159.451050 209.213593,160.767242 210.031723,163.584290 
	C212.611206,172.466278 215.344849,181.303482 218.062561,190.555145 
	C215.444702,194.691681 213.929871,194.959030 208.577301,192.282562 
	C206.930740,188.364380 205.703720,184.721771 204.435532,181.093552 
	C204.342407,180.827118 203.951904,180.664627 203.501312,180.288025 
	C201.036880,185.010193 198.597900,189.683594 195.996384,194.678558 
z"/>
<path fill="#E84500" opacity="1.000000" stroke="none" 
	d="
M332.068176,218.575043 
	C329.013397,218.979904 325.912842,219.001343 322.347687,219.030182 
	C319.250366,215.977158 318.515656,211.929840 316.521637,208.377396 
	C314.924347,210.731689 314.462555,213.294495 313.361298,215.925095 
	C309.765076,217.155914 306.489868,218.136353 303.105377,215.368866 
	C305.703003,207.031296 308.269745,198.994110 311.463745,191.214432 
	C312.995728,187.482971 319.042847,188.097183 320.963074,192.207352 
	C324.946747,200.734421 329.102417,209.205322 332.068176,218.575043 
z"/>
<path fill="#E22900" opacity="1.000000" stroke="none" 
	d="
M398.372589,149.293488 
	C389.489136,140.606720 380.249115,133.360046 369.213470,128.617966 
	C366.060913,127.263313 365.256195,124.477623 366.306519,121.660980 
	C367.556885,118.307938 370.896698,118.279114 373.529144,119.358185 
	C382.478912,123.026817 390.773163,127.931023 397.922272,134.495941 
	C402.050018,138.286407 406.135712,142.187073 409.530701,147.151993 
	C407.526764,151.717133 404.715118,152.265503 398.372589,149.293488 
z"/>
<path fill="#F37A00" opacity="1.000000" stroke="none" 
	d="
M272.940460,320.573914 
	C270.661255,327.902954 268.230286,334.760956 265.747681,341.600250 
	C264.765198,344.306793 262.810760,345.890198 259.884949,345.973419 
	C257.201080,346.049774 256.110931,343.886322 255.521362,341.935638 
	C253.696915,335.899078 250.864960,330.166199 249.931931,323.440979 
	C252.256302,318.685944 255.574722,319.401611 259.475189,321.663055 
	C261.686920,323.224091 261.686920,323.224091 262.561005,320.109985 
	C266.203064,317.686462 269.522705,316.435577 272.940460,320.573914 
z"/>
<path fill="#E43500" opacity="1.000000" stroke="none" 
	d="
M398.036926,149.355011 
	C401.565582,148.630127 405.408295,149.871826 409.340485,147.680756 
	C416.304749,156.830261 421.973846,166.652740 424.072021,178.558441 
	C421.497681,182.062790 418.330048,181.940994 414.554260,180.260605 
	C411.024048,168.740967 405.534515,158.714691 398.036926,149.355011 
z"/>
<path fill="#EA5300" opacity="1.000000" stroke="none" 
	d="
M227.522598,251.385376 
	C222.919724,240.902603 220.307388,230.263229 216.942566,219.463379 
	C219.774094,215.744980 222.995041,216.432907 226.714478,218.615692 
	C231.037827,229.161240 234.257217,239.586716 237.070480,250.558990 
	C234.292145,254.173874 231.137848,253.586639 227.522598,251.385376 
z"/>
<path fill="#EC5900" opacity="1.000000" stroke="none" 
	d="
M303.893066,238.623169 
	C301.679871,247.750198 297.972260,256.003357 294.837311,264.465759 
	C294.446075,265.521790 294.109558,266.598114 293.430756,267.852661 
	C290.101807,270.749634 286.870422,270.811462 283.177307,268.399811 
	C285.602905,257.848297 289.837830,248.303268 294.000519,238.337219 
	C297.391235,235.337662 300.535553,236.404373 303.893066,238.623169 
z"/>
<path fill="#EF6600" opacity="1.000000" stroke="none" 
	d="
M282.570312,268.145569 
	C285.984314,267.981476 289.084564,268.002777 292.649292,268.032227 
	C290.875244,276.652313 286.839355,284.608246 284.001892,293.001648 
	C283.588654,294.224030 283.168732,295.444122 282.433105,296.852966 
	C278.605072,299.241150 275.439026,299.014191 272.437836,295.357605 
	C275.530701,286.113190 278.893616,277.222076 282.570312,268.145569 
z"/>
<path fill="#E84500" opacity="1.000000" stroke="none" 
	d="
M227.068512,218.563889 
	C224.016281,218.985550 220.917450,219.011932 217.356537,219.055542 
	C214.033539,210.298248 211.172623,201.523727 208.239807,192.376328 
	C211.234543,191.836365 214.364822,192.464081 217.727707,191.110321 
	C221.814438,199.783203 224.532349,208.938507 227.068512,218.563889 
z"/>
<path fill="#ED6000" opacity="1.000000" stroke="none" 
	d="
M227.103180,251.399796 
	C230.180191,250.997589 233.191528,250.987930 236.659912,250.970169 
	C240.667389,258.733398 242.457825,267.079285 245.069183,275.566711 
	C242.745895,280.316345 239.426239,279.594269 235.525482,277.342590 
	C231.801346,268.810577 229.674454,260.219208 227.103180,251.399796 
z"/>
<path fill="#F17000" opacity="1.000000" stroke="none" 
	d="
M272.091980,295.377045 
	C275.223755,295.628143 278.279663,296.251984 281.724945,296.958252 
	C279.605804,303.998810 277.091949,310.954956 274.595459,317.917419 
	C274.271576,318.820679 274.037598,319.756134 273.437439,320.864563 
	C270.132599,319.529358 266.904053,320.146057 263.317932,319.956848 
	C265.917511,311.880280 268.966858,303.815033 272.091980,295.377045 
z"/>
<path fill="#E74000" opacity="1.000000" stroke="none" 
	d="
M414.251221,180.390091 
	C417.193695,179.661270 420.220520,179.319077 423.682922,178.968964 
	C426.877075,185.940598 426.967651,193.250656 427.088837,200.616150 
	C427.151367,204.417999 425.123352,205.750290 422.093384,205.906784 
	C418.721497,206.080933 417.041656,203.900925 417.025421,200.636932 
	C416.991852,193.892441 415.867584,187.310486 414.251221,180.390091 
z"/>
<path fill="#EF6600" opacity="1.000000" stroke="none" 
	d="
M235.108841,277.386536 
	C238.241776,276.992035 241.338364,277.203186 244.715591,276.046021 
	C247.754013,284.026001 250.389725,292.091797 253.082611,300.548187 
	C250.242767,304.256592 247.011230,303.566254 243.281494,301.384308 
	C239.310547,293.606628 237.967804,285.423828 235.108841,277.386536 
z"/>
<path fill="#E94C00" opacity="1.000000" stroke="none" 
	d="
M304.436035,238.851669 
	C301.026245,239.136810 297.969116,238.866348 294.566162,238.040009 
	C295.955444,230.129410 299.909241,223.026688 302.567291,215.156387 
	C306.036530,215.264389 309.277985,214.411209 312.705383,215.882507 
	C310.278137,223.633926 307.513916,231.151184 304.436035,238.851669 
z"/>
<path fill="#E01E00" opacity="1.000000" stroke="none" 
	d="
M357.089478,123.426880 
	C350.376038,123.992859 344.087616,123.194984 337.827545,122.043793 
	C334.472809,121.426872 333.868591,119.137222 333.976624,116.179512 
	C334.091095,113.045479 336.448730,112.290657 338.646301,112.111862 
	C344.889801,111.603882 351.044952,112.900597 357.092102,114.175362 
	C360.731293,114.942520 360.756805,119.864731 357.089478,123.426880 
z"/>
<path fill="#F17000" opacity="1.000000" stroke="none" 
	d="
M242.932312,301.440369 
	C245.988831,301.015259 249.098587,300.989807 252.674072,300.951538 
	C255.416519,307.705170 257.693207,314.471558 259.901733,321.621002 
	C256.756622,322.002258 253.660782,321.800110 250.281631,322.951965 
	C246.905624,316.191162 244.687836,309.099365 242.932312,301.440369 
z"/>
</svg>