<svg version="1.1" id="Layer_1" xmlns="http://www.w3.org/2000/svg" xmlns:xlink="http://www.w3.org/1999/xlink" x="0px" y="0px"
	 width="100%" viewBox="0 0 128 128" enable-background="new 0 0 128 128" xml:space="preserve">
<path fill="#196B72" opacity="1.000000" stroke="none" 
	d="
M55.276592,128.785614 
	C53.611111,129.000000 52.222221,129.000000 50.416664,129.000000 
	C47.772087,127.295456 44.987415,127.744301 42.491646,127.071045 
	C37.368416,125.689011 32.582687,123.811066 29.571159,118.632217 
	C29.003378,113.829086 28.232468,109.463821 29.249237,104.943489 
	C30.196804,100.730820 32.349720,98.622269 36.763088,98.673630 
	C39.686905,98.707649 42.658035,98.893402 45.891747,98.294952 
	C44.400433,96.872246 42.810192,97.414192 41.456619,97.032578 
	C40.081219,96.644821 38.903923,95.993408 38.699547,94.522438 
	C38.501827,93.099396 39.295261,91.980598 40.491802,91.210045 
	C41.608311,90.491028 42.775196,89.810684 44.019913,89.387863 
	C52.231892,86.598244 58.118511,80.927696 63.349167,73.861969 
	C64.596405,72.188759 67.686806,70.729889 63.101994,69.356888 
	C54.917336,64.093491 52.366863,55.752369 49.813324,47.512959 
	C48.953773,44.739468 48.055698,41.700504 49.943840,38.490334 
	C53.650475,37.032295 56.441483,35.626690 58.144024,31.711367 
	C60.004696,27.432398 64.536545,25.991226 68.694443,27.116295 
	C72.727364,28.207548 75.317406,30.876907 75.990082,35.083233 
	C76.651596,39.219830 74.461876,43.346516 70.632385,45.539780 
	C64.909470,48.817463 63.954647,51.780014 66.354248,58.813679 
	C66.718178,58.853149 67.152756,58.716396 67.164986,58.385212 
	C67.368011,52.885071 69.473351,48.999233 74.551537,45.945530 
	C78.704788,43.448036 79.881920,38.557831 78.597000,33.496033 
	C77.200706,27.995466 73.611816,24.983646 68.153214,24.159399 
	C63.074463,23.392511 59.142262,25.428402 56.003361,29.402082 
	C54.140121,31.760845 54.113342,35.140930 51.239326,37.244553 
	C50.671173,37.440407 50.425499,37.461174 49.833221,37.347176 
	C47.770493,35.935589 47.655277,34.035675 47.945831,32.251755 
	C48.610245,28.172487 48.611614,24.008530 49.724159,19.983631 
	C51.564110,13.327163 52.508728,12.427946 59.436954,11.461727 
	C55.629280,7.122888 56.636261,3.674749 62.124748,2.401756 
	C64.052849,1.954554 66.008385,1.605189 68.371246,1.500607 
	C70.285934,1.480376 71.825615,1.547663 73.681625,1.222474 
	C75.066673,1.000000 76.133339,1.000000 77.600006,1.000000 
	C79.699333,3.076765 82.407265,2.729069 84.901955,3.879427 
	C85.705246,4.276004 86.117706,4.580410 86.743156,5.240519 
	C87.123657,5.766910 87.248581,5.995516 87.492630,6.592907 
	C93.499168,12.495842 94.758583,20.454216 98.369545,27.032167 
	C103.202293,35.835789 102.112488,41.519886 95.742432,48.141605 
	C93.331650,50.647636 92.404701,54.586990 90.740852,57.842968 
	C88.905602,61.434376 86.439598,64.551323 83.516228,67.306419 
	C80.679214,69.980125 80.998528,72.522209 83.835381,74.887062 
	C87.874161,78.253860 92.332520,80.465744 97.781906,80.732475 
	C113.190880,81.486694 115.259651,92.282356 114.028984,102.752609 
	C113.863823,104.157768 113.190041,105.250984 111.677536,106.185303 
	C108.491837,106.576775 105.659660,106.925964 102.878128,108.052734 
	C104.772499,109.369751 107.510971,108.213898 109.407982,110.572601 
	C110.059990,111.914032 109.698036,112.935928 109.450562,114.356552 
	C108.678482,116.016739 107.653458,116.875061 106.003540,117.554703 
	C101.510757,117.145401 97.515007,118.646011 92.947823,118.350273 
	C94.571220,119.108650 96.108589,118.987015 97.209396,120.509567 
	C97.927048,124.045456 95.746956,125.199615 93.322784,126.192795 
	C89.894379,127.597427 86.133408,127.443817 82.316879,128.752960 
	C80.933327,129.000000 79.866661,129.000000 78.399994,129.000000 
	C75.919426,128.003906 73.725174,128.682007 71.292473,128.782211 
	C67.969406,129.000000 64.938812,129.000000 61.454109,129.000000 
	C59.252686,127.989555 57.371937,128.674164 55.276592,128.785614 
z"/>
<path fill="#012E4E" opacity="1.000000" stroke="none" 
	d="
M109.268616,111.304108 
	C105.870514,110.924408 102.713875,111.064941 99.621162,110.685013 
	C97.090950,110.374184 94.817238,109.358009 97.795914,106.081635 
	C102.134644,104.991119 106.240746,105.785309 110.686752,105.232040 
	C112.765038,100.094238 112.444183,95.164307 110.631500,90.417747 
	C108.365005,84.482849 103.006226,83.400574 97.561783,83.066147 
	C90.313965,82.620941 84.584312,79.469070 79.748009,74.236954 
	C77.582329,71.894035 76.980591,70.008774 79.834999,67.648834 
	C86.174622,62.407425 89.963234,55.380508 92.745926,47.807854 
	C93.441368,45.915302 94.673721,44.902706 96.115845,43.735439 
	C100.433838,40.240421 100.761597,34.810379 97.027725,30.667799 
	C96.249924,29.804863 95.178436,29.141253 95.132141,27.860361 
	C94.845818,19.937391 90.963493,13.667436 85.937660,7.546664 
	C88.329590,3.686676 91.289291,5.681159 93.785309,6.865294 
	C105.587570,12.464390 115.084167,20.672455 122.132401,31.821243 
	C125.597046,37.301571 127.296791,43.215500 128.756531,49.702728 
	C129.000000,60.354229 129.000000,70.708458 129.000000,81.531342 
	C127.230057,88.174217 126.236931,94.589920 122.608162,100.149559 
	C119.611519,104.740723 116.741547,109.369751 111.393890,112.184387 
	C110.463257,112.114494 109.976913,111.914215 109.268616,111.304108 
z"/>
<path fill="#51A6AF" opacity="1.000000" stroke="none" 
	d="
M65.159843,74.058502 
	C59.945198,84.987656 50.412457,90.030907 39.033661,93.753899 
	C41.821327,95.886810 44.175537,94.976479 46.287331,95.256424 
	C48.473385,95.546219 51.717239,94.872765 51.596691,98.155701 
	C51.481152,101.302216 48.291801,100.742928 46.074116,100.827660 
	C43.096237,100.941437 40.091110,101.079834 37.133785,100.810799 
	C33.261082,100.458519 31.632626,102.199249 31.510174,105.845505 
	C31.382467,109.648285 31.233912,113.450371 31.046921,117.724472 
	C27.754763,120.428688 25.819706,117.510048 23.667757,116.125313 
	C21.914633,114.997223 20.392271,113.384705 19.397587,110.986984 
	C20.207069,106.680756 17.032127,101.818504 22.078671,98.793274 
	C22.771336,98.378044 21.780636,97.710495 21.474522,97.176491 
	C18.459454,91.916870 19.838398,87.135757 25.152685,83.840889 
	C28.840099,81.554680 33.052330,81.366714 37.116417,80.757179 
	C41.932114,80.034904 45.906338,77.921883 49.432652,74.711357 
	C51.987110,72.385666 52.463932,70.009766 49.696163,67.537476 
	C44.462543,62.862553 41.406902,56.789394 38.798187,50.460175 
	C37.941708,48.382202 36.598438,46.863583 34.988842,45.352993 
	C30.066769,40.733707 29.627333,35.359165 33.503040,29.761093 
	C34.070316,28.941721 34.921131,28.211567 35.071476,27.240223 
	C36.418015,18.540535 40.718708,11.502216 47.217289,5.252307 
	C49.084126,2.441845 52.146084,2.740129 54.726006,1.240900 
	C59.356899,1.000000 63.713802,1.000000 68.535355,1.000000 
	C69.211922,1.167137 69.423836,1.334274 69.258759,1.648974 
	C65.538788,2.312863 62.409389,3.349645 59.940708,5.779565 
	C59.397167,6.314573 58.785202,7.178758 58.844467,7.833453 
	C58.931938,8.799791 60.045712,8.760007 60.860100,8.806452 
	C62.019852,8.872594 63.186588,8.843341 64.342331,8.945484 
	C65.568947,9.053890 66.656570,9.486670 66.827339,10.911511 
	C67.023117,12.544876 66.044685,13.428436 64.601212,13.680547 
	C63.304970,13.906942 61.919628,14.087009 60.641903,13.875279 
	C55.094673,12.956053 52.825661,15.823325 51.957539,20.816113 
	C51.047737,26.048630 50.002579,31.246876 50.762280,37.228973 
	C51.157509,49.470123 55.555511,59.316559 63.673439,67.910812 
	C65.722778,69.667389 65.480225,71.687889 65.159843,74.058502 
z"/>
<path fill="#000000" opacity="1.000000" stroke="none" 
	d="
M54.531342,1.000000 
	C54.912437,4.321647 50.808777,3.399739 49.601021,6.033575 
	C34.149891,14.396557 19.296179,22.887598 11.828937,39.709324 
	C9.113815,45.825775 6.869310,52.065983 6.343433,58.767658 
	C6.149729,61.236198 5.217962,63.211712 3.461040,65.287788 
	C2.630401,65.643227 2.125692,65.630363 1.312433,65.229698 
	C1.000000,44.742340 1.070475,24.484152 0.918114,4.227641 
	C0.897134,1.438431 1.505302,0.894046 4.249549,0.920455 
	C20.852644,1.080233 37.458050,1.000000 54.531342,1.000000 
z"/>
<path fill="#000000" opacity="1.000000" stroke="none" 
	d="
M129.000000,49.531342 
	C126.400726,49.493713 126.639511,47.065804 125.989059,45.349030 
	C119.244781,27.548288 107.396835,14.728875 89.518471,7.756381 
	C88.613991,7.403637 87.601357,7.328232 86.246162,7.171451 
	C85.853249,7.219205 85.867119,7.183864 85.865929,7.165972 
	C85.597237,6.508358 84.985970,6.524642 84.186737,6.283128 
	C81.803688,4.781658 78.831078,4.568296 77.896301,1.348572 
	C93.929672,1.000000 109.860352,1.090747 125.788086,0.915133 
	C128.606964,0.884053 129.107422,1.547508 129.077820,4.261304 
	C128.914902,19.193602 129.000000,34.128609 129.000000,49.531342 
z"/>
<path fill="#000000" opacity="1.000000" stroke="none" 
	d="
M20.788513,109.744812 
	C23.390388,113.546143 26.843775,115.787018 30.649689,118.110382 
	C34.917484,122.094704 39.862732,124.134705 44.957550,125.898727 
	C46.762383,126.523636 48.827007,126.565987 50.075764,128.624725 
	C34.729042,129.000000 19.456858,128.900253 4.188223,129.088562 
	C1.314306,129.124008 0.906530,128.373810 0.926837,125.713020 
	C1.066178,107.455330 1.000000,89.196068 1.000000,70.468658 
	C1.421056,69.633408 1.906379,69.401344 2.863044,69.338287 
	C4.759507,69.990715 5.829922,71.153564 5.952249,72.672180 
	C6.529344,79.836456 9.583568,86.351646 11.139992,93.638550 
	C11.053231,94.280899 10.992919,94.530716 10.748020,95.111481 
	C10.111824,95.920006 9.579591,96.253258 8.941140,96.440376 
	C8.162450,96.668579 7.234698,96.951614 7.422290,97.959785 
	C7.672006,99.301819 8.858758,98.905708 10.131911,98.861649 
	C11.497025,98.725815 12.478342,98.918091 13.817051,99.240028 
	C17.796402,101.785950 19.403465,105.469330 20.788513,109.744812 
z"/>
<path fill="#000000" opacity="1.000000" stroke="none" 
	d="
M110.735611,111.224701 
	C118.804039,103.510529 123.795296,94.333603 126.996613,84.102509 
	C127.249794,83.293373 127.436974,82.511978 128.641998,82.060333 
	C129.000000,96.598068 128.900940,111.197388 129.085831,125.793114 
	C129.121658,128.621246 128.439667,129.108582 125.735306,129.077316 
	C111.470917,128.912369 97.203613,129.000000 82.468658,129.000000 
	C84.298332,125.112122 89.055092,126.443863 92.222633,124.225723 
	C93.584793,123.271835 95.515533,123.046394 96.901276,121.353409 
	C97.847580,116.824310 101.886803,117.847870 104.754974,116.304382 
	C105.874039,115.492874 106.666801,114.830894 107.734772,114.022812 
	C108.698952,112.935669 109.396370,112.002991 110.735611,111.224701 
z"/>
<path fill="#51A7AF" opacity="1.000000" stroke="none" 
	d="
M3.411847,70.365463 
	C2.526124,70.109299 2.091926,70.059044 1.328864,70.004395 
	C1.000000,68.611107 1.000000,67.222221 1.000000,65.416664 
	C1.439928,64.983025 1.879856,64.966049 2.631068,64.838745 
	C4.578664,63.337486 6.350304,62.590076 8.907833,63.838638 
	C10.694732,65.757034 11.331290,67.585785 10.508340,70.154739 
	C8.115508,72.590958 5.988704,71.870094 3.411847,70.365463 
z"/>
<path fill="#298289" opacity="1.000000" stroke="none" 
	d="
M71.437500,129.000000 
	C73.056618,127.713860 75.206429,127.752136 77.704811,128.774475 
	C75.958336,129.000000 73.916664,129.000000 71.437500,129.000000 
z"/>
<path fill="#2E828A" opacity="1.000000" stroke="none" 
	d="
M55.428463,129.000000 
	C56.714596,127.681564 58.536003,127.830032 60.701569,128.803284 
	C59.285641,129.000000 57.571285,129.000000 55.428463,129.000000 
z"/>
<path fill="#398E97" opacity="1.000000" stroke="none" 
	d="
M69.267273,1.847422 
	C68.881767,1.796537 68.938393,1.397899 68.969193,1.198949 
	C70.388893,1.000000 71.777779,1.000000 73.583336,1.000000 
	C72.711319,2.075636 71.179321,1.973781 69.267273,1.847422 
z"/>
<path fill="#F8F0F1" opacity="1.000000" stroke="none" 
	d="
M51.144619,37.725708 
	C51.823124,28.185541 56.979927,22.209490 65.341965,21.663273 
	C72.310783,21.208061 78.665436,25.454092 80.732460,31.946848 
	C82.880043,38.692612 80.225311,46.389378 73.832710,49.464268 
	C70.459877,51.086636 69.602692,53.022476 69.983673,56.287254 
	C70.136452,57.596439 70.072540,58.957146 69.912407,60.270649 
	C69.651245,62.412907 68.251991,63.555557 66.169647,63.434925 
	C64.342903,63.329102 63.005634,62.239838 62.969776,60.260235 
	C62.894497,56.104393 62.870708,51.944252 62.976624,47.789722 
	C63.042122,45.220661 65.130455,44.792904 67.118317,44.265625 
	C72.342422,42.879925 74.646973,40.049217 74.045654,35.597084 
	C73.512505,31.649689 71.156563,29.328535 67.166779,28.911877 
	C62.689594,28.444317 60.152344,30.624020 58.639423,36.035957 
	C57.355949,40.627113 55.689789,41.127159 51.384178,37.983887 
	C51.040253,37.857616 50.980778,37.966232 51.034981,37.996159 
	C51.062557,37.848099 51.035923,37.670113 51.144619,37.725708 
z"/>
<path fill="#012D4E" opacity="1.000000" stroke="none" 
	d="
M104.609985,116.112106 
	C103.072510,118.420227 100.470291,119.768860 97.389862,120.968964 
	C94.742195,121.009308 92.438232,121.023102 90.136169,120.963470 
	C88.463173,120.920143 86.491951,120.847534 86.417923,118.664856 
	C86.331764,116.124275 88.500481,116.054718 90.319580,116.037170 
	C94.925430,115.992752 99.532272,116.051788 104.609985,116.112106 
z"/>
<path fill="#51A7AF" opacity="1.000000" stroke="none" 
	d="
M45.143433,113.827202 
	C46.979305,110.903831 57.035912,109.762688 58.808903,111.916679 
	C60.063438,113.440781 59.437443,115.300072 57.887005,115.452156 
	C53.646667,115.868118 49.140785,117.633331 45.143433,113.827202 
z"/>
<path fill="#022F50" opacity="1.000000" stroke="none" 
	d="
M75.173065,120.983749 
	C72.955589,120.812630 70.668663,120.699173 70.932587,118.268600 
	C71.174660,116.039146 73.455162,116.016212 75.300034,116.022820 
	C77.140129,116.029411 79.387695,116.027451 79.515526,118.389648 
	C79.648865,120.853714 77.407051,120.892151 75.173065,120.983749 
z"/>
<path fill="#EDEBEB" opacity="1.000000" stroke="none" 
	d="
M65.533737,74.382362 
	C63.024967,72.930855 62.145100,71.138344 63.809113,68.393021 
	C66.603935,66.766197 68.985893,67.046364 69.777061,70.086899 
	C70.505630,72.886833 68.669151,74.247330 65.533737,74.382362 
z"/>
<path fill="#033050" opacity="1.000000" stroke="none" 
	d="
M85.138977,106.396362 
	C87.016960,107.071655 87.300621,108.142250 86.176865,109.378349 
	C85.587952,110.026123 84.611839,110.018288 84.006577,109.399757 
	C82.694504,108.058922 83.503380,107.135345 85.138977,106.396362 
z"/>
<path fill="#22727B" opacity="1.000000" stroke="none" 
	d="
M110.602112,105.011322 
	C107.172142,106.995079 103.012299,105.589256 98.540604,105.925705 
	C101.998161,104.137848 106.125839,105.368706 110.602112,105.011322 
z"/>
<path fill="#27777F" opacity="1.000000" stroke="none" 
	d="
M110.687935,111.012901 
	C110.223213,111.943893 109.420967,112.857582 108.314346,113.823990 
	C108.256729,113.106209 108.503494,112.335716 108.874878,111.287079 
	C109.449814,111.004486 109.900108,111.000046 110.687935,111.012901 
z"/>
<path fill="#012E4E" opacity="1.000000" stroke="none" 
	d="
M84.127701,6.355485 
	C84.479774,6.316788 85.032166,6.472007 85.724655,6.887653 
	C85.352501,6.948521 84.840263,6.748962 84.127701,6.355485 
z"/>
<path fill="#89AEB2" opacity="1.000000" stroke="none" 
	d="
M51.198647,37.773354 
	C51.279945,37.959290 51.177734,37.940998 51.133461,37.983543 
	C51.151222,37.823322 51.106293,37.649788 50.837227,37.504944 
	C50.720055,37.504406 51.117348,37.587414 51.198647,37.773354 
z"/>
<path fill="#1A6872" opacity="1.000000" stroke="none" 
	d="
M105.563286,62.545723 
	C110.661110,62.159668 115.448647,62.106239 120.234688,62.168373 
	C121.981064,62.191048 123.698357,62.726143 123.645477,64.892693 
	C123.596222,66.910698 121.855553,67.110954 120.362480,67.046448 
	C115.923714,66.854668 111.575577,68.963417 106.783905,67.334373 
	C104.731018,66.113914 104.549072,64.646759 105.563286,62.545723 
z"/>
<path fill="#196771" opacity="1.000000" stroke="none" 
	d="
M95.763992,72.894997 
	C97.947609,71.715332 99.950882,72.084114 101.916206,72.257927 
	C103.636879,72.410103 105.407379,72.999924 105.322052,75.117317 
	C105.238853,77.181953 103.473396,77.691673 101.739822,77.831230 
	C100.088326,77.964172 98.423912,77.936707 96.330544,77.919182 
	C94.584534,76.447357 94.437218,74.941338 95.763992,72.894997 
z"/>
<path fill="#4C9FA9" opacity="1.000000" stroke="none" 
	d="
M105.459404,62.172607 
	C106.004890,63.551327 106.135620,64.935310 106.366684,66.725922 
	C104.829926,67.192688 103.192329,67.310638 101.555885,67.296280 
	C100.002289,67.282669 98.402023,66.932236 98.307655,65.051102 
	C98.201706,62.939285 99.820496,62.351631 101.598618,62.231800 
	C102.743301,62.154659 103.895706,62.191898 105.459404,62.172607 
z"/>
<path fill="#4899A4" opacity="1.000000" stroke="none" 
	d="
M95.600487,72.474091 
	C95.993683,73.959656 95.986938,75.463875 95.938049,77.413345 
	C93.722504,77.663223 90.752068,78.344719 90.716942,74.987831 
	C90.687729,72.196625 93.350494,72.733063 95.600487,72.474091 
z"/>
<path fill="#022E4F" opacity="1.000000" stroke="none" 
	d="
M3.143546,70.510010 
	C4.964507,70.087166 6.968693,70.014786 9.400121,69.902512 
	C10.707428,68.309052 12.193440,67.844009 14.156599,67.635033 
	C12.373283,66.962044 10.522158,67.078987 9.313450,65.213959 
	C7.328640,64.896675 5.572022,64.838989 3.378878,64.754852 
	C4.329468,52.797993 6.871159,41.250683 13.925022,31.169085 
	C22.563942,18.822069 33.783375,10.056684 48.913986,6.179283 
	C42.947796,11.997182 38.602753,18.849951 37.885525,27.632927 
	C37.779961,28.925646 36.892780,29.561594 36.043171,30.397745 
	C31.809107,34.564732 32.238068,40.624939 37.210690,44.007267 
	C39.014576,45.234253 39.985607,46.623383 40.672794,48.553276 
	C43.395966,56.201042 47.502209,62.985516 53.921814,68.086296 
	C56.081829,69.802567 55.790806,71.136543 54.395931,73.012680 
	C49.029858,80.230156 41.634289,83.357697 32.901516,83.790962 
	C27.986092,84.034821 24.227377,86.096512 22.274448,90.693947 
	C21.224886,93.164757 20.744638,95.741302 24.957846,95.660370 
	C26.604670,95.628731 28.643446,95.672874 28.769409,97.894913 
	C28.911694,100.404877 26.790588,100.766563 24.933786,100.694717 
	C21.968201,100.579964 21.194326,102.097511 21.320896,104.688843 
	C21.393591,106.177139 21.256641,107.675667 21.111807,109.612282 
	C17.902807,107.948456 16.280575,104.646690 14.099030,101.368652 
	C14.021912,98.209351 11.034461,97.472580 9.962795,95.056770 
	C6.155020,87.208229 4.321329,79.150246 3.143546,70.510010 
z"/>
<path fill="#1A6B73" opacity="1.000000" stroke="none" 
	d="
M9.866281,94.820213 
	C16.231064,96.032669 16.578810,96.480721 14.210279,100.837914 
	C12.876322,101.054321 11.811510,101.039467 10.352543,100.958466 
	C7.413048,99.383926 6.878828,97.618668 9.627642,95.247368 
	C9.988166,95.014603 9.812101,94.907776 9.866281,94.820213 
z"/>
<path fill="#52A9B0" opacity="1.000000" stroke="none" 
	d="
M9.563419,95.008057 
	C9.265531,96.725227 8.426118,98.429619 9.833475,100.569839 
	C9.793322,100.909134 9.621673,100.964188 9.464177,100.937065 
	C7.036783,100.519043 3.104296,102.625862 3.105761,97.904381 
	C3.107116,93.537598 6.861223,95.471184 9.563419,95.008057 
z"/>
<path fill="#186A71" opacity="1.000000" stroke="none" 
	d="
M9.101860,65.318138 
	C11.714849,64.972122 14.345499,64.950714 16.973648,65.021767 
	C18.647966,65.067032 20.562405,65.190620 20.641024,67.391472 
	C20.719984,69.601898 18.867767,69.890274 17.159763,69.941292 
	C15.024850,70.005051 12.886376,69.949646 10.288401,69.904144 
	C9.103370,68.551735 8.840981,67.162598 9.101860,65.318138 
z"/>
</svg>